<?xml version="1.0" encoding="UTF-8" standalone="no"?>
<!-- Created with Inkscape (http://www.inkscape.org/) -->

<svg
   xmlns:dc="http://purl.org/dc/elements/1.1/"
   xmlns:cc="http://creativecommons.org/ns#"
   xmlns:rdf="http://www.w3.org/1999/02/22-rdf-syntax-ns#"
   xmlns:svg="http://www.w3.org/2000/svg"
   xmlns="http://www.w3.org/2000/svg"
   xmlns:xlink="http://www.w3.org/1999/xlink"
   xmlns:sodipodi="http://sodipodi.sourceforge.net/DTD/sodipodi-0.dtd"
   xmlns:inkscape="http://www.inkscape.org/namespaces/inkscape"
   width="100"
   height="100"
   viewBox="0 0 26.458333 26.458333"
   version="1.1"
   id="svg8"
   inkscape:version="0.92.2 5c3e80d, 2017-08-06"
   sodipodi:docname="Fuel.svg">
  <defs
     id="defs2">
    <linearGradient
       inkscape:collect="always"
       id="linearGradient1077">
      <stop
         style="stop-color:#fb990a;stop-opacity:1;"
         offset="0"
         id="stop1073" />
      <stop
         style="stop-color:#d75e03;stop-opacity:1"
         offset="1"
         id="stop1075" />
    </linearGradient>
    <marker
       inkscape:stockid="Arrow1Lstart"
       orient="auto"
       refY="0"
       refX="0"
       id="marker5276"
       style="overflow:visible"
       inkscape:isstock="true">
      <path
         id="path5274"
         d="M 0,0 5,-5 -12.5,0 5,5 Z"
         style="fill:#000000;fill-opacity:1;fill-rule:evenodd;stroke:#000000;stroke-width:1.00000003pt;stroke-opacity:1"
         transform="matrix(0.8,0,0,0.8,10,0)"
         inkscape:connector-curvature="0" />
    </marker>
    <marker
       inkscape:stockid="Arrow1Lstart"
       orient="auto"
       refY="0"
       refX="0"
       id="marker5200"
       style="overflow:visible"
       inkscape:isstock="true">
      <path
         id="path5198"
         d="M 0,0 5,-5 -12.5,0 5,5 Z"
         style="fill:#000000;fill-opacity:1;fill-rule:evenodd;stroke:#000000;stroke-width:1.00000003pt;stroke-opacity:1"
         transform="matrix(0.8,0,0,0.8,10,0)"
         inkscape:connector-curvature="0" />
    </marker>
    <marker
       inkscape:stockid="Arrow1Lstart"
       orient="auto"
       refY="0"
       refX="0"
       id="marker5130"
       style="overflow:visible"
       inkscape:isstock="true">
      <path
         id="path5128"
         d="M 0,0 5,-5 -12.5,0 5,5 Z"
         style="fill:#000000;fill-opacity:1;fill-rule:evenodd;stroke:#000000;stroke-width:1.00000003pt;stroke-opacity:1"
         transform="matrix(0.8,0,0,0.8,10,0)"
         inkscape:connector-curvature="0" />
    </marker>
    <marker
       inkscape:stockid="Arrow1Lstart"
       orient="auto"
       refY="0"
       refX="0"
       id="marker5066"
       style="overflow:visible"
       inkscape:isstock="true">
      <path
         id="path5064"
         d="M 0,0 5,-5 -12.5,0 5,5 Z"
         style="fill:#000000;fill-opacity:1;fill-rule:evenodd;stroke:#000000;stroke-width:1.00000003pt;stroke-opacity:1"
         transform="matrix(0.8,0,0,0.8,10,0)"
         inkscape:connector-curvature="0" />
    </marker>
    <marker
       inkscape:stockid="Arrow1Lstart"
       orient="auto"
       refY="0"
       refX="0"
       id="marker5008"
       style="overflow:visible"
       inkscape:isstock="true">
      <path
         id="path5006"
         d="M 0,0 5,-5 -12.5,0 5,5 Z"
         style="fill:#000000;fill-opacity:1;fill-rule:evenodd;stroke:#000000;stroke-width:1.00000003pt;stroke-opacity:1"
         transform="matrix(0.8,0,0,0.8,10,0)"
         inkscape:connector-curvature="0" />
    </marker>
    <marker
       inkscape:stockid="Arrow1Lstart"
       orient="auto"
       refY="0"
       refX="0"
       id="marker4956"
       style="overflow:visible"
       inkscape:isstock="true">
      <path
         id="path4954"
         d="M 0,0 5,-5 -12.5,0 5,5 Z"
         style="fill:#000000;fill-opacity:1;fill-rule:evenodd;stroke:#000000;stroke-width:1.00000003pt;stroke-opacity:1"
         transform="matrix(0.8,0,0,0.8,10,0)"
         inkscape:connector-curvature="0" />
    </marker>
    <marker
       inkscape:stockid="Arrow1Lstart"
       orient="auto"
       refY="0"
       refX="0"
       id="marker4910"
       style="overflow:visible"
       inkscape:isstock="true">
      <path
         id="path4908"
         d="M 0,0 5,-5 -12.5,0 5,5 Z"
         style="fill:#000000;fill-opacity:1;fill-rule:evenodd;stroke:#000000;stroke-width:1.00000003pt;stroke-opacity:1"
         transform="matrix(0.8,0,0,0.8,10,0)"
         inkscape:connector-curvature="0" />
    </marker>
    <marker
       inkscape:stockid="Arrow1Lstart"
       orient="auto"
       refY="0"
       refX="0"
       id="marker4870"
       style="overflow:visible"
       inkscape:isstock="true">
      <path
         id="path4868"
         d="M 0,0 5,-5 -12.5,0 5,5 Z"
         style="fill:#000000;fill-opacity:1;fill-rule:evenodd;stroke:#000000;stroke-width:1.00000003pt;stroke-opacity:1"
         transform="matrix(0.8,0,0,0.8,10,0)"
         inkscape:connector-curvature="0" />
    </marker>
    <marker
       inkscape:stockid="Arrow1Lstart"
       orient="auto"
       refY="0"
       refX="0"
       id="marker4836"
       style="overflow:visible"
       inkscape:isstock="true">
      <path
         id="path4834"
         d="M 0,0 5,-5 -12.5,0 5,5 Z"
         style="fill:#000000;fill-opacity:1;fill-rule:evenodd;stroke:#000000;stroke-width:1.00000003pt;stroke-opacity:1"
         transform="matrix(0.8,0,0,0.8,10,0)"
         inkscape:connector-curvature="0" />
    </marker>
    <marker
       inkscape:stockid="Arrow1Lstart"
       orient="auto"
       refY="0"
       refX="0"
       id="marker4808"
       style="overflow:visible"
       inkscape:isstock="true">
      <path
         id="path4806"
         d="M 0,0 5,-5 -12.5,0 5,5 Z"
         style="fill:#000000;fill-opacity:1;fill-rule:evenodd;stroke:#000000;stroke-width:1.00000003pt;stroke-opacity:1"
         transform="matrix(0.8,0,0,0.8,10,0)"
         inkscape:connector-curvature="0" />
    </marker>
    <marker
       inkscape:stockid="Arrow1Lstart"
       orient="auto"
       refY="0"
       refX="0"
       id="marker4786"
       style="overflow:visible"
       inkscape:isstock="true">
      <path
         id="path4784"
         d="M 0,0 5,-5 -12.5,0 5,5 Z"
         style="fill:#000000;fill-opacity:1;fill-rule:evenodd;stroke:#000000;stroke-width:1.00000003pt;stroke-opacity:1"
         transform="matrix(0.8,0,0,0.8,10,0)"
         inkscape:connector-curvature="0" />
    </marker>
    <marker
       inkscape:stockid="Arrow1Lstart"
       orient="auto"
       refY="0"
       refX="0"
       id="Arrow1Lstart"
       style="overflow:visible"
       inkscape:isstock="true">
      <path
         id="path4508"
         d="M 0,0 5,-5 -12.5,0 5,5 Z"
         style="fill:#000000;fill-opacity:1;fill-rule:evenodd;stroke:#000000;stroke-width:1.00000003pt;stroke-opacity:1"
         transform="matrix(0.8,0,0,0.8,10,0)"
         inkscape:connector-curvature="0" />
    </marker>
    <linearGradient
       inkscape:collect="always"
       xlink:href="#linearGradient1077"
       id="linearGradient1079"
       x1="3.2159932"
       y1="282.36311"
       x2="22.4637"
       y2="282.36311"
       gradientUnits="userSpaceOnUse"
       gradientTransform="matrix(1.2654289,0,0,1.2715889,-3.1424818,-75.198345)" />
    <linearGradient
       gradientTransform="matrix(3.7795276,0,0,3.7795276,-12.154935,-1030.2719)"
       inkscape:collect="always"
       xlink:href="#linearGradient1077"
       id="linearGradient1079-2"
       x1="3.2159932"
       y1="282.3631"
       x2="22.463699"
       y2="282.3631"
       gradientUnits="userSpaceOnUse" />
    <linearGradient
       inkscape:collect="always"
       xlink:href="#linearGradient1077"
       id="linearGradient1153"
       gradientUnits="userSpaceOnUse"
       x1="4.5640626"
       y1="274.04739"
       x2="5.9933867"
       y2="274.22717"
       gradientTransform="matrix(1.2654289,0,0,1.2715889,-3.1424818,-75.198345)" />
    <linearGradient
       inkscape:collect="always"
       xlink:href="#linearGradient1077"
       id="linearGradient1155"
       gradientUnits="userSpaceOnUse"
       x1="3.2159932"
       y1="282.36311"
       x2="22.4637"
       y2="282.36311"
       gradientTransform="matrix(1.2654289,0,0,1.2715889,-3.1424818,-75.198345)" />
    <linearGradient
       inkscape:collect="always"
       xlink:href="#linearGradient1077"
       id="linearGradient1157"
       gradientUnits="userSpaceOnUse"
       x1="3.2159932"
       y1="282.36311"
       x2="22.4637"
       y2="282.36311"
       gradientTransform="matrix(1.2654289,0,0,1.2715889,-3.1424818,-75.198345)" />
  </defs>
  <sodipodi:namedview
     id="base"
     pagecolor="#ffffff"
     bordercolor="#666666"
     borderopacity="1.0"
     inkscape:pageopacity="0.0"
     inkscape:pageshadow="2"
     inkscape:zoom="4"
     inkscape:cx="41.970431"
     inkscape:cy="31.563429"
     inkscape:document-units="mm"
     inkscape:current-layer="layer1"
     showgrid="false"
     inkscape:window-width="1596"
     inkscape:window-height="884"
     inkscape:window-x="0"
     inkscape:window-y="14"
     inkscape:window-maximized="0"
     units="px" />
  <metadata
     id="metadata5">
    <rdf:RDF>
      <cc:Work
         rdf:about="">
        <dc:format>image/svg+xml</dc:format>
        <dc:type
           rdf:resource="http://purl.org/dc/dcmitype/StillImage" />
        <dc:title />
      </cc:Work>
    </rdf:RDF>
  </metadata>
  <g
     inkscape:label="Layer 1"
     inkscape:groupmode="layer"
     id="layer1"
     transform="translate(0,-270.54167)">
    <path
       style="opacity:1;vector-effect:none;fill:none;fill-opacity:0.29641694;stroke:url(#linearGradient1079);stroke-width:0.5;stroke-linecap:round;stroke-linejoin:round;stroke-miterlimit:4;stroke-dasharray:none;stroke-dashoffset:0;stroke-opacity:1"
       d="m 25.065378,279.58556 c -0.669624,4.0373 -2.594789,2.94386 -6.361418,4.54195 -3.766627,1.5981 -4.603656,5.80361 -3.934033,8.0746 0.669623,2.27098 -2.352872,4.05471 -5.8591987,3.86909 -3.0557816,-0.16179 -7.4495536,-1.09345 -7.7843649,-7.40172 -0.33481148,-6.30828 8.2865822,-7.06527 7.031039,-11.10257 -1.2555428,-4.03729 0.1465494,-5.26188 2.4273826,-5.8036 5.986132,-0.97664 15.08506,3.16365 14.480593,7.82225 z"
       id="path988"
       inkscape:connector-curvature="0"
       sodipodi:nodetypes="cssssscc" />
    <path
       style="opacity:1;vector-effect:none;fill:none;fill-opacity:0.29641694;stroke:url(#linearGradient1157);stroke-width:0.5;stroke-linecap:round;stroke-linejoin:round;stroke-miterlimit:4;stroke-dasharray:none;stroke-dashoffset:0;stroke-opacity:1"
       d="m 23.140211,285.80971 c 1.951372,0.82626 3.431817,5.04664 2.008869,6.05596 -1.422949,1.00933 -2.9296,-1.00932 -4.352549,-0.50467 -1.422947,0.50467 -1.004433,2.35509 -2.678491,2.69154 -1.674056,0.33643 -2.09257,-3.36441 -0.502216,-5.5513 1.590354,-2.18686 3.638486,-3.49006 5.524387,-2.69153 z"
       id="path1083"
       inkscape:connector-curvature="0"
       sodipodi:nodetypes="ascsca" />
    <path
       style="opacity:1;vector-effect:none;fill:none;fill-opacity:0.29641694;stroke:url(#linearGradient1153);stroke-width:0.5;stroke-linecap:round;stroke-linejoin:round;stroke-miterlimit:4;stroke-dasharray:none;stroke-dashoffset:0;stroke-opacity:1"
       d="m 2.6330146,273.27728 c -1.5903542,1.76632 -1.4229475,3.44852 0.1674056,3.1962 1.5903551,-0.25234 2.4143754,-2.2282 1.7577598,-3.28031 -0.3412704,-0.54682 -1.4229484,-0.25234 -1.9251654,0.0841 z"
       id="path1093"
       inkscape:connector-curvature="0"
       sodipodi:nodetypes="csacc" />
    <path
       style="opacity:1;vector-effect:none;fill:none;fill-opacity:0.29641694;stroke:url(#linearGradient1155);stroke-width:0.5;stroke-linecap:round;stroke-linejoin:round;stroke-miterlimit:4;stroke-dasharray:none;stroke-dashoffset:0;stroke-opacity:1"
       d="m 2.794524,279.37451 c -0.2975329,1.13468 0.1774647,1.75784 0.8345697,1.22497 0.6570344,-0.53301 0.5593406,-1.54246 0.013423,-1.78208 -0.2837337,-0.1245 -0.7014738,0.28676 -0.8480454,0.55702 z"
       id="path1093-1"
       inkscape:connector-curvature="0"
       sodipodi:nodetypes="csacc" />
  </g>
</svg>
